<svg id="Layer_1" data-name="Layer 1" xmlns="http://www.w3.org/2000/svg" viewBox="0 0 357.32 35.57"><defs><style>.cls-1{fill:#231f20;}</style></defs><title>Logosvg</title><path class="cls-1" d="M0,18.1C0,7.44,7.1,0,18.82,0,28.61,0,34,5.18,35.38,10.71l-6.87,1.15c-.86-3.46-3.93-6.72-9.88-6.72-7.4,0-11.77,5.13-11.77,13,0,7.49,4.18,12.77,11.81,12.77s10.8-5.09,10.9-8.93v-.43H18.19V16.66H35.62V35h-4.9l-.48-5.57c-2,3.8-6.48,6.53-12.91,6.53C6.58,36,0,28.61,0,18.1Z"/><path class="cls-1" d="M38.65,28.56a6.13,6.13,0,0,1,2.93-5.42c1.73-1.11,4.13-1.78,8.64-2.21l8.6-.72v-.53c0-3.5-2.16-5.13-6.2-5.13s-6.33,1.53-6.72,4.36H39.42c.58-5.23,5.62-8.59,13.2-8.59,8.5,0,12.44,3.26,12.44,10.23v6.76A35.06,35.06,0,0,0,65.68,35H59.44a28.57,28.57,0,0,1-.38-4.37c-1.64,3.22-5.38,5.09-10.66,5.09C42.45,35.76,38.65,33,38.65,28.56Zm20.26-3.65V23.67l-8.11.81c-4.18.43-5.71,1.54-5.71,3.75s2,3.4,5.37,3.4C55.46,31.63,58.91,29,58.91,24.91Z"/><path class="cls-1" d="M83.28,10.42a9.22,9.22,0,0,1,1.72.14v5.71a12.55,12.55,0,0,0-1.87-.14c-2.78,0-4.61.72-5.9,2-1.92,1.92-2.35,4.65-2.35,7.53V35h-6.2V11h5.67v6.29C75.6,13.2,78.76,10.42,83.28,10.42Z"/><path class="cls-1" d="M101.59,10.42a9.22,9.22,0,0,1,1.72.14v5.71a12.55,12.55,0,0,0-1.87-.14c-2.78,0-4.61.72-5.9,2-1.92,1.92-2.36,4.65-2.36,7.53V35H87V11h5.67v6.29C93.9,13.2,97.07,10.42,101.59,10.42Z"/><path class="cls-1" d="M130.69,24.58H109.23c.24,4,3.36,6.62,8.35,6.62,3.65,0,6.39-1.49,7.88-4.17l4.84,2.2c-2.4,4.23-6.86,6.53-13,6.53-8.78,0-14.16-4.56-14.16-12.48,0-8.16,5.43-13,13.92-13s13.59,4.37,13.59,12.05Zm-6.15-4.13c0-3.94-3.07-6.19-7.53-6.19-4.66,0-7.54,2.45-7.78,6.43h15.31Z"/><path class="cls-1" d="M130.36,11h5.57V5l6.19-2.4V11h8.17v4.37h-8.17V25.92c0,3.07,1.49,4.47,4.61,4.47a15,15,0,0,0,3.56-.44V34.9a18.64,18.64,0,0,1-5.09.67c-6.87,0-9.27-3.41-9.27-8.69V15.41h-5.57Z"/><path class="cls-1" d="M152.74,11h5.57V5l6.19-2.4V11h8.16v4.37H164.5V25.92c0,3.07,1.49,4.47,4.61,4.47a14.94,14.94,0,0,0,3.55-.44V34.9a18.52,18.52,0,0,1-5.09.67c-6.86,0-9.26-3.41-9.26-8.69V15.41h-5.57Z"/><path class="cls-1" d="M191.92,1h7.2l9.41,24.15a22.5,22.5,0,0,1,1.15,4h.19a22.5,22.5,0,0,1,1.15-4L220.43,1h7.2L213.62,35h-7.68Z"/><path class="cls-1" d="M250.32,24.58H228.86c.24,4,3.36,6.62,8.35,6.62,3.65,0,6.39-1.49,7.87-4.17l4.85,2.2c-2.4,4.23-6.86,6.53-13,6.53-8.78,0-14.16-4.56-14.16-12.48,0-8.16,5.43-13,13.92-13s13.59,4.37,13.59,12.05Zm-6.15-4.13c0-3.94-3.07-6.19-7.53-6.19-4.66,0-7.54,2.45-7.78,6.43h15.31Z"/><path class="cls-1" d="M268,10.42a9.4,9.4,0,0,1,1.73.14v5.71a12.55,12.55,0,0,0-1.87-.14c-2.79,0-4.61.72-5.91,2-1.92,1.92-2.35,4.65-2.35,7.53V35h-6.19V11h5.66v6.29C260.32,13.2,263.49,10.42,268,10.42Z"/><path class="cls-1" d="M269.6,23c0-7.82,5.52-12.67,14.3-12.67,7.35,0,12.1,3.17,13.25,8.88l-6.33.91C290.1,16.8,287.6,15,283.71,15c-4.8,0-7.68,3-7.68,8s3,8.11,7.78,8.11c3.84,0,6.29-1.78,7.15-5.14L297.1,27c-1.2,5.47-6.19,8.78-13.29,8.78C275.17,35.76,269.6,30.77,269.6,23Z"/><path class="cls-1" d="M299.13,23c0-7.92,5.81-12.72,14.35-12.72s14.31,4.8,14.31,12.72S322,35.76,313.48,35.76,299.13,30.91,299.13,23Zm22.23,0c0-5.28-3-8.16-7.88-8.16s-7.92,2.88-7.92,8.16,3,8.16,7.92,8.16S321.36,28.27,321.36,23Z"/><path class="cls-1" d="M357.32,24.58H335.87c.24,4,3.36,6.62,8.35,6.62,3.65,0,6.38-1.49,7.87-4.17l4.85,2.2c-2.4,4.23-6.87,6.53-13,6.53-8.79,0-14.16-4.56-14.16-12.48,0-8.16,5.42-13,13.92-13s13.58,4.37,13.58,12.05Zm-6.14-4.13c-.05-3.94-3.07-6.19-7.54-6.19-4.65,0-7.53,2.45-7.77,6.43h15.31Z"/></svg>